<svg viewBox="0 0 24 24" xmlns="http://www.w3.org/2000/svg"><path d="m0 0h24v24h-24z" fill="#fff" opacity="0" transform="matrix(0 1 -1 0 24 0)"/><path d="m17.56 21a1 1 0 0 1 -.46-.11l-5.1-2.67-5.1 2.67a1 1 0 0 1 -1.45-1.06l1-5.63-4.12-4a1 1 0 0 1 -.25-1 1 1 0 0 1 .81-.68l5.7-.83 2.51-5.13a1 1 0 0 1 1.8 0l2.54 5.12 5.7.83a1 1 0 0 1 .81.68 1 1 0 0 1 -.25 1l-4.12 4 1 5.63a1 1 0 0 1 -.4 1 1 1 0 0 1 -.62.18zm-5.56-4.9a.92.92 0 0 1 .46.11l3.77 2-.72-4.21a1 1 0 0 1 .29-.89l3-2.93-4.2-.62a1 1 0 0 1 -.71-.56l-1.89-3.75-1.89 3.75a1 1 0 0 1 -.75.54l-4.2.62 3 2.93a1 1 0 0 1 .29.89l-.72 4.16 3.77-2a.92.92 0 0 1 .5-.04z" fill="#231f20"/></svg>