<svg fill="none" height="16" viewBox="0 0 16 16" width="16" xmlns="http://www.w3.org/2000/svg"><path d="m2.53547 7.32742 4.7594-4.72809c.3755-.37303.88414-.58357 1.41517-.58577l3.26406-.01354c1.1209-.00465 2.0297.90097 2.0216 2.01442l-.0245 3.37135c-.0038.52541-.2156 1.02823-.5896 1.39977l-4.68915 4.65834c-.78622.781-2.06094.781-2.84716 0l-3.30982-3.2881c-.78622-.781-.78623-2.04733 0-2.82838zm7.72823-1.66915c.3008.29875.7883.29875 1.0891 0 .3007-.29875.3007-.78313 0-1.08188-.3008-.29875-.7883-.29875-1.0891 0-.3007.29875-.3007.78313 0 1.08188z" fill="#212121"/></svg>